<svg xmlns="http://www.w3.org/2000/svg" viewBox="0 0 100 100" fill="none" role="img" aria-labelledby="bfaMarkTitle">
  <title id="bfaMarkTitle">BFA TLM</title>
  <g transform="translate(50 50) scale(0.88) translate(-50 -50)">
    <circle cx="38" cy="24" r="5.5" fill="#1e3a8a" stroke="#22d3ee" stroke-width="1.8" />
    <circle cx="62" cy="24" r="5.5" fill="#1e3a8a" stroke="#22d3ee" stroke-width="1.8" />
    <path
      fill="#1e3a8a"
      d="M50 30c11 0 20 6 24 16v22c0 14-11 28-24 34-13-6-24-20-24-34V46c4-10 13-16 24-16z"
    />
    <path
      fill="#22d3ee"
      opacity="0.95"
      d="M33 60c6 12 12 20 17 24 5-4 11-12 17-24v6c-7 11-14 18-17 20-3-2-10-9-17-20z"
    />
    <polyline
      points="30,50 36,50 40,43 45,58 49,50 56,50 60,45 65,54 72,54"
      fill="none"
      stroke="#db2777"
      stroke-width="2.2"
      stroke-linecap="round"
      stroke-linejoin="round"
    />
  </g>
</svg>
